<svg id="Grupo_488" data-name="Grupo 488" xmlns="http://www.w3.org/2000/svg" xmlns:xlink="http://www.w3.org/1999/xlink" width="375" height="210.266" viewBox="0 0 375 210.266">
  <defs>
    <clipPath id="clip-path">
      <rect id="Retângulo_693" data-name="Retângulo 693" width="375" height="210.266" fill="none"/>
    </clipPath>
    <clipPath id="clip-path-2">
      <rect id="Retângulo_684" data-name="Retângulo 684" width="44.387" height="10.58" fill="none"/>
    </clipPath>
    <clipPath id="clip-path-5">
      <rect id="Retângulo_690" data-name="Retângulo 690" width="44.388" height="10.58" fill="none"/>
    </clipPath>
    <clipPath id="clip-path-6">
      <rect id="Retângulo_691" data-name="Retângulo 691" width="62.06" height="32.576" fill="none"/>
    </clipPath>
  </defs>
  <g id="Grupo_487" data-name="Grupo 487" clip-path="url(#clip-path)">
    <g id="Grupo_474" data-name="Grupo 474" transform="translate(212.056 163.547)" style="mix-blend-mode: normal;isolation: isolate">
      <g id="Grupo_473" data-name="Grupo 473">
        <g id="Grupo_472" data-name="Grupo 472" clip-path="url(#clip-path-2)">
          <rect id="Retângulo_683" data-name="Retângulo 683" width="44.387" height="10.58" transform="translate(0 0)" fill="#fff"/>
        </g>
      </g>
    </g>
    <path id="Caminho_242" data-name="Caminho 242" d="M0,124.115l8.781-19.71c10.928,8.781,28.3,15.025,45.079,15.025,21.271,0,30.248-7.61,30.248-17.757,0-29.469-81.182-10.149-81.182-60.887C2.927,18.735,20.491,0,57.959,0c16.393,0,33.566,4.294,45.47,12.1l-8,19.71C83.133,24.589,69.667,21.077,57.763,21.077c-21.076,0-29.662,8.2-29.662,18.538,0,29.077,80.986,10.148,80.986,60.3,0,21.858-17.758,40.592-55.227,40.592-21.27,0-42.543-6.636-53.861-16.393" fill="#fff"/>
    <path id="Caminho_243" data-name="Caminho 243" d="M183.063,138.054,155.157,98.047a47.149,47.149,0,0,1-5.268.2H119.054v39.81H93.686V43.942A42.494,42.494,0,0,1,136.179,1.448h13.71c35.907,0,58.154,18.346,58.154,48.593,0,20.687-10.539,35.907-29.077,43.128l31.418,44.885ZM148.718,22.915h-4.136a25.528,25.528,0,0,0-25.527,25.527V77.362h29.663c22.247,0,33.76-10.148,33.76-27.321s-11.513-27.126-33.76-27.126" transform="translate(32.571 0.503)" fill="#fff"/>
    <path id="Caminho_244" data-name="Caminho 244" d="M307.762,50.041c0,30.053-22.247,48.593-58.156,48.593H218.774V159.6c0,7.005-5.679,8.345-12.684,8.345S193.4,166.608,193.4,159.6V47.2A45.753,45.753,0,0,1,239.156,1.448h10.451c35.908,0,58.156,18.346,58.156,48.593m-25.565,0c0-17.173-11.514-27.126-33.762-27.126h-2.167A27.494,27.494,0,0,0,218.774,50.41V77.166h29.662c22.247,0,33.762-9.952,33.762-27.126" transform="translate(67.239 0.503)" fill="#fff"/>
    <g id="Grupo_477" data-name="Grupo 477" transform="translate(2.509 163.547)" style="mix-blend-mode: normal;isolation: isolate">
      <g id="Grupo_476" data-name="Grupo 476">
        <g id="Grupo_475" data-name="Grupo 475" clip-path="url(#clip-path-2)">
          <rect id="Retângulo_685" data-name="Retângulo 685" width="44.387" height="10.58" transform="translate(0 0)" fill="#fff"/>
        </g>
      </g>
    </g>
    <g id="Grupo_480" data-name="Grupo 480" transform="translate(72.358 163.547)" style="mix-blend-mode: normal;isolation: isolate">
      <g id="Grupo_479" data-name="Grupo 479">
        <g id="Grupo_478" data-name="Grupo 478" clip-path="url(#clip-path-2)">
          <rect id="Retângulo_687" data-name="Retângulo 687" width="44.387" height="10.58" transform="translate(0.001 0)" fill="#fff"/>
        </g>
      </g>
    </g>
    <g id="Grupo_483" data-name="Grupo 483" transform="translate(142.206 163.547)" style="mix-blend-mode: normal;isolation: isolate">
      <g id="Grupo_482" data-name="Grupo 482">
        <g id="Grupo_481" data-name="Grupo 481" clip-path="url(#clip-path-5)">
          <rect id="Retângulo_689" data-name="Retângulo 689" width="44.387" height="10.58" transform="translate(0 0)" fill="#fff"/>
        </g>
      </g>
    </g>
    <g id="Grupo_486" data-name="Grupo 486" transform="translate(242.273 152.132)" style="mix-blend-mode: normal;isolation: isolate">
      <g id="Grupo_485" data-name="Grupo 485">
        <g id="Grupo_484" data-name="Grupo 484" clip-path="url(#clip-path-6)">
          <path id="Caminho_245" data-name="Caminho 245" d="M226.882,112.9v7.958c0,11.714-12.083,11.714-16.055,11.714s-16.053,0-16.053-11.714v-7.974c-8.99,3.074-15,8.653-15,15.028,0,9.691,13.893,17.548,31.03,17.548s31.031-7.857,31.031-17.548c0-6.362-5.989-11.935-14.952-15.012" transform="translate(-179.773 -112.886)" fill="#fff"/>
        </g>
      </g>
    </g>
    <path id="Caminho_246" data-name="Caminho 246" d="M4.244,157.787l1.035-2.325a7.014,7.014,0,0,0,3.676,1.1c1.3,0,1.814-.367,1.814-.907,0-1.768-6.334-.478-6.334-4.617,0-1.988,1.624-3.612,4.934-3.612a8.354,8.354,0,0,1,4.043.97l-.972,2.341a6.569,6.569,0,0,0-3.087-.861c-1.321,0-1.8.446-1.8,1,0,1.7,6.321.43,6.321,4.536,0,1.943-1.625,3.6-4.935,3.6a8.777,8.777,0,0,1-4.7-1.225" transform="translate(1.475 51.254)" fill="#fff"/>
    <rect id="Retângulo_692" data-name="Retângulo 692" width="3.151" height="11.142" transform="translate(16.796 198.901)" fill="#fff"/>
    <path id="Caminho_247" data-name="Caminho 247" d="M15.886,157.787l1.035-2.325a7.014,7.014,0,0,0,3.676,1.1c1.3,0,1.814-.367,1.814-.907,0-1.768-6.334-.478-6.334-4.617,0-1.988,1.624-3.612,4.934-3.612a8.35,8.35,0,0,1,4.043.97l-.972,2.341a6.569,6.569,0,0,0-3.087-.861c-1.321,0-1.8.446-1.8,1,0,1.7,6.321.43,6.321,4.536,0,1.943-1.625,3.6-4.935,3.6a8.777,8.777,0,0,1-4.7-1.225" transform="translate(5.523 51.254)" fill="#fff"/>
    <path id="Caminho_248" data-name="Caminho 248" d="M26.629,150.089H23.206v-2.5h9.979v2.5H29.78v8.643H26.629Z" transform="translate(8.068 51.312)" fill="#fff"/>
    <path id="Caminho_249" data-name="Caminho 249" d="M40.429,156.3v2.435H31.484V147.59h8.738v2.437H34.6V151.9h4.95v2.356H34.6V156.3Z" transform="translate(10.946 51.311)" fill="#fff"/>
    <path id="Caminho_250" data-name="Caminho 250" d="M49.477,158.732l-.031-5.905-2.865,4.808h-1.4l-2.849-4.649v5.746H39.418V147.59h2.594l3.915,6.431,3.819-6.431h2.6l.031,11.142Z" transform="translate(13.704 51.311)" fill="#fff"/>
    <path id="Caminho_251" data-name="Caminho 251" d="M58.493,156.568H53.78l-.875,2.164H49.69l4.919-11.141h3.1l4.935,11.141H59.368Zm-.924-2.323-1.431-3.566L54.7,154.244Z" transform="translate(17.275 51.312)" fill="#fff"/>
    <path id="Caminho_252" data-name="Caminho 252" d="M63.4,147.591h5.268c3.691,0,6.222,2.148,6.222,5.57s-2.531,5.571-6.222,5.571H63.4Zm5.14,8.626a3.058,3.058,0,1,0,0-6.112h-1.99v6.112Z" transform="translate(22.041 51.312)" fill="#fff"/>
    <path id="Caminho_253" data-name="Caminho 253" d="M82.1,156.3v2.435H73.151V147.59H81.89v2.437H76.271V151.9h4.95v2.356h-4.95V156.3Z" transform="translate(25.432 51.311)" fill="#fff"/>
    <path id="Caminho_254" data-name="Caminho 254" d="M89.391,155.773h-1.72v2.959H84.521V147.59h5.094c3.038,0,4.949,1.577,4.949,4.124a3.7,3.7,0,0,1-2.181,3.516l2.4,3.5H91.413Zm.031-5.7H87.672v3.263h1.751c1.306,0,1.958-.6,1.958-1.623,0-1.035-.652-1.64-1.958-1.64" transform="translate(29.385 51.311)" fill="#fff"/>
    <path id="Caminho_255" data-name="Caminho 255" d="M101.07,156.568H96.357l-.875,2.164H92.267l4.919-11.141h3.1l4.935,11.141h-3.279Zm-.924-2.323-1.431-3.566-1.434,3.566Z" transform="translate(32.078 51.312)" fill="#fff"/>
    <path id="Caminho_256" data-name="Caminho 256" d="M101.961,157.787,103,155.462a7.014,7.014,0,0,0,3.676,1.1c1.3,0,1.814-.367,1.814-.907,0-1.768-6.334-.478-6.334-4.617,0-1.988,1.624-3.612,4.934-3.612a8.354,8.354,0,0,1,4.043.97l-.972,2.341a6.569,6.569,0,0,0-3.087-.861c-1.321,0-1.8.446-1.8,1,0,1.7,6.321.43,6.321,4.536,0,1.943-1.625,3.6-4.935,3.6a8.777,8.777,0,0,1-4.7-1.225" transform="translate(35.448 51.254)" fill="#fff"/>
    <path id="Caminho_257" data-name="Caminho 257" d="M112.7,150.089h-3.423v-2.5h9.979v2.5h-3.406v8.643H112.7Z" transform="translate(37.993 51.312)" fill="#fff"/>
    <path id="Caminho_258" data-name="Caminho 258" d="M122.429,155.773h-1.721v2.959h-3.149V147.59h5.094c3.036,0,4.947,1.577,4.947,4.124a3.693,3.693,0,0,1-2.179,3.516l2.4,3.5h-3.372Zm.031-5.7h-1.752v3.263h1.752c1.3,0,1.957-.6,1.957-1.623,0-1.035-.652-1.64-1.957-1.64" transform="translate(40.871 51.311)" fill="#fff"/>
    <path id="Caminho_259" data-name="Caminho 259" d="M135.24,156.3v2.435H126.3V147.59h8.738v2.437h-5.618V151.9h4.95v2.356h-4.95V156.3Z" transform="translate(43.908 51.311)" fill="#fff"/>
    <path id="Caminho_260" data-name="Caminho 260" d="M142.041,156.568h-4.713l-.875,2.164h-3.215l4.919-11.141h3.1l4.935,11.141h-3.279Zm-.924-2.323-1.431-3.566-1.434,3.566Z" transform="translate(46.322 51.312)" fill="#fff"/>
    <path id="Caminho_261" data-name="Caminho 261" d="M153.57,158.732l-.031-5.905-2.865,4.808h-1.4l-2.85-4.649v5.746h-2.912V147.59h2.594l3.915,6.431,3.819-6.431h2.6l.031,11.142Z" transform="translate(49.893 51.311)" fill="#fff"/>
    <path id="Caminho_262" data-name="Caminho 262" d="M163.72,156.3v2.435h-8.944V147.59h8.738v2.437H157.9V151.9h4.95v2.356H157.9V156.3Z" transform="translate(53.809 51.311)" fill="#fff"/>
    <path id="Caminho_263" data-name="Caminho 263" d="M173.31,147.59v11.142h-2.594L165.8,152.8v5.938H162.71V147.59H165.3l4.918,5.936V147.59Z" transform="translate(56.568 51.311)" fill="#fff"/>
    <path id="Caminho_264" data-name="Caminho 264" d="M174.87,150.089h-3.423v-2.5h9.979v2.5H178.02v8.643H174.87Z" transform="translate(59.605 51.312)" fill="#fff"/>
    <path id="Caminho_265" data-name="Caminho 265" d="M179.181,153.219c0-3.342,2.627-5.794,6.193-5.794s6.19,2.451,6.19,5.794-2.625,5.794-6.19,5.794-6.193-2.451-6.193-5.794m9.2,0a3.013,3.013,0,1,0-3.007,3.183,2.982,2.982,0,0,0,3.007-3.183" transform="translate(62.294 51.254)" fill="#fff"/>
    <path id="Caminho_266" data-name="Caminho 266" d="M193.032,147.591H198.3c3.691,0,6.222,2.148,6.222,5.57s-2.531,5.571-6.222,5.571h-5.268Zm5.14,8.626a3.058,3.058,0,1,0,0-6.112h-1.99v6.112Z" transform="translate(67.11 51.312)" fill="#fff"/>
    <path id="Caminho_267" data-name="Caminho 267" d="M211.728,156.3v2.435h-8.944V147.59h8.738v2.437H205.9V151.9h4.95v2.356H205.9V156.3Z" transform="translate(70.5 51.311)" fill="#fff"/>
    <path id="Caminho_268" data-name="Caminho 268" d="M224.2,151.714c0,2.531-1.911,4.106-4.95,4.106H217.3v2.912h-3.151V147.59h5.093c3.039,0,4.95,1.577,4.95,4.124m-3.183,0c0-1.035-.652-1.64-1.958-1.64H217.3v3.263h1.751c1.306,0,1.958-.6,1.958-1.623" transform="translate(74.453 51.311)" fill="#fff"/>
    <path id="Caminho_269" data-name="Caminho 269" d="M227.608,155.773h-1.72v2.959h-3.151V147.59h5.094c3.038,0,4.949,1.577,4.949,4.124a3.7,3.7,0,0,1-2.181,3.516l2.4,3.5H229.63Zm.031-5.7h-1.751v3.263h1.751c1.306,0,1.958-.6,1.958-1.623,0-1.035-.652-1.64-1.958-1.64" transform="translate(77.437 51.311)" fill="#fff"/>
    <path id="Caminho_270" data-name="Caminho 270" d="M231.05,153.219c0-3.342,2.627-5.794,6.193-5.794s6.19,2.451,6.19,5.794-2.625,5.794-6.19,5.794-6.193-2.451-6.193-5.794m9.2,0a3.013,3.013,0,1,0-3.007,3.183,2.982,2.982,0,0,0,3.007-3.183" transform="translate(80.327 51.254)" fill="#fff"/>
    <path id="Caminho_271" data-name="Caminho 271" d="M241.464,147.591h5.268c3.693,0,6.222,2.148,6.222,5.57s-2.53,5.571-6.222,5.571h-5.268Zm5.141,8.626a3.058,3.058,0,1,0,0-6.112h-1.992v6.112Z" transform="translate(83.947 51.312)" fill="#fff"/>
    <path id="Caminho_272" data-name="Caminho 272" d="M251.146,153.766V147.59H254.3v6.081c0,1.91.8,2.674,2.116,2.674s2.1-.764,2.1-2.674V147.59h3.1v6.176c0,3.326-1.942,5.188-5.236,5.188s-5.237-1.862-5.237-5.188" transform="translate(87.314 51.311)" fill="#fff"/>
    <path id="Caminho_273" data-name="Caminho 273" d="M263.011,150.089h-3.423v-2.5h9.979v2.5h-3.406v8.643h-3.151Z" transform="translate(90.248 51.312)" fill="#fff"/>
    <path id="Caminho_274" data-name="Caminho 274" d="M267.322,153.219c0-3.342,2.627-5.794,6.193-5.794s6.19,2.451,6.19,5.794-2.625,5.794-6.19,5.794-6.193-2.451-6.193-5.794m9.2,0a3.013,3.013,0,1,0-3.007,3.183,2.982,2.982,0,0,0,3.007-3.183" transform="translate(92.937 51.254)" fill="#fff"/>
  </g>
</svg>
