<svg id="Grupo_505" data-name="Grupo 505" xmlns="http://www.w3.org/2000/svg" xmlns:xlink="http://www.w3.org/1999/xlink" width="503.787" height="282.478" viewBox="0 0 503.787 282.478">
  <defs>
    <clipPath id="clip-path">
      <rect id="Retângulo_704" data-name="Retângulo 704" width="503.787" height="282.478" fill="none"/>
    </clipPath>
    <clipPath id="clip-path-2">
      <rect id="Retângulo_695" data-name="Retângulo 695" width="59.63" height="14.214" fill="none"/>
    </clipPath>
    <clipPath id="clip-path-3">
      <rect id="Retângulo_696" data-name="Retângulo 696" width="83.373" height="47.15" fill="none"/>
    </clipPath>
    <clipPath id="clip-path-4">
      <rect id="Retângulo_698" data-name="Retângulo 698" width="59.631" height="14.214" fill="none"/>
    </clipPath>
    <clipPath id="clip-path-6">
      <rect id="Retângulo_702" data-name="Retângulo 702" width="59.632" height="14.214" fill="none"/>
    </clipPath>
  </defs>
  <g id="Grupo_504" data-name="Grupo 504" clip-path="url(#clip-path)">
    <g id="Grupo_491" data-name="Grupo 491" transform="translate(284.882 219.713)" style="mix-blend-mode: normal;isolation: isolate">
      <g id="Grupo_490" data-name="Grupo 490">
        <g id="Grupo_489" data-name="Grupo 489" clip-path="url(#clip-path-2)">
          <rect id="Retângulo_694" data-name="Retângulo 694" width="59.63" height="14.214" transform="translate(0 0)" fill="#f3bc00"/>
        </g>
      </g>
    </g>
    <g id="Grupo_494" data-name="Grupo 494" transform="translate(325.477 200.992)" style="mix-blend-mode: normal;isolation: isolate">
      <g id="Grupo_493" data-name="Grupo 493">
        <g id="Grupo_492" data-name="Grupo 492" clip-path="url(#clip-path-3)">
          <path id="Caminho_275" data-name="Caminho 275" d="M263.147,134.59c0,13.019-18.664,23.574-41.686,23.574s-41.688-10.555-41.688-23.574,18.664-23.574,41.688-23.574,41.686,10.555,41.686,23.574" transform="translate(-179.774 -111.015)" fill="#2b4b40"/>
        </g>
      </g>
    </g>
    <path id="Caminho_276" data-name="Caminho 276" d="M0,166.74l11.8-26.478c14.681,11.8,38.015,20.185,60.561,20.185,28.577,0,40.636-10.224,40.636-23.855,0-39.59-109.062-13.635-109.062-81.8C3.932,25.168,27.528,0,77.864,0c22.023,0,45.094,5.768,61.086,16.256L128.2,42.734c-16.517-9.7-34.607-14.419-50.6-14.419-28.314,0-39.849,11.01-39.849,24.905,0,39.063,108.8,13.633,108.8,81.01,0,29.364-23.857,54.532-74.194,54.532C43.783,188.762,15.2,179.848,0,166.74" transform="translate(0 -0.001)" fill="#2b4b40"/>
    <path id="Caminho_277" data-name="Caminho 277" d="M213.758,184.966l-37.49-53.746a63.344,63.344,0,0,1-7.077.264H127.767v53.482H93.686V58.535A57.086,57.086,0,0,1,150.773,1.448h18.418c48.239,0,78.126,24.646,78.126,65.281,0,27.789-14.158,48.237-39.063,57.939l42.208,60.3ZM167.617,30.285h-5.556A34.3,34.3,0,0,0,127.767,64.58v38.851h39.851c29.888,0,45.355-13.633,45.355-36.7S197.5,30.285,167.617,30.285" transform="translate(75.931 1.174)" fill="#2b4b40"/>
    <path id="Caminho_278" data-name="Caminho 278" d="M347.037,66.728c0,40.374-29.888,65.281-78.128,65.281H227.486v81.908c0,9.411-7.629,11.211-17.04,11.211s-17.042-1.8-17.042-11.211V62.911A61.465,61.465,0,0,1,254.868,1.447h14.04c48.24,0,78.128,24.646,78.128,65.281m-34.345,0c0-23.071-15.469-36.442-45.356-36.442h-2.911a36.937,36.937,0,0,0-36.938,36.938v35.945h39.849c29.888,0,45.356-13.37,45.356-36.442" transform="translate(156.752 1.173)" fill="#f3bc00"/>
    <g id="Grupo_497" data-name="Grupo 497" transform="translate(3.371 219.713)" style="mix-blend-mode: normal;isolation: isolate">
      <g id="Grupo_496" data-name="Grupo 496">
        <g id="Grupo_495" data-name="Grupo 495" clip-path="url(#clip-path-4)">
          <rect id="Retângulo_697" data-name="Retângulo 697" width="59.63" height="14.214" transform="translate(0 0)" fill="#f3bc00"/>
        </g>
      </g>
    </g>
    <g id="Grupo_500" data-name="Grupo 500" transform="translate(97.208 219.713)" style="mix-blend-mode: normal;isolation: isolate">
      <g id="Grupo_499" data-name="Grupo 499">
        <g id="Grupo_498" data-name="Grupo 498" clip-path="url(#clip-path-4)">
          <rect id="Retângulo_699" data-name="Retângulo 699" width="59.63" height="14.214" transform="translate(0.001 0)" fill="#f3bc00"/>
        </g>
      </g>
    </g>
    <g id="Grupo_503" data-name="Grupo 503" transform="translate(191.045 219.713)" style="mix-blend-mode: normal;isolation: isolate">
      <g id="Grupo_502" data-name="Grupo 502">
        <g id="Grupo_501" data-name="Grupo 501" clip-path="url(#clip-path-6)">
          <rect id="Retângulo_701" data-name="Retângulo 701" width="59.63" height="14.214" transform="translate(0 0)" fill="#f3bc00"/>
        </g>
      </g>
    </g>
    <path id="Caminho_279" data-name="Caminho 279" d="M4.245,161.346l1.389-3.123a9.433,9.433,0,0,0,4.939,1.477c1.753,0,2.439-.492,2.439-1.218,0-2.375-8.511-.643-8.511-6.2,0-2.672,2.182-4.854,6.628-4.854a11.2,11.2,0,0,1,5.431,1.305l-1.305,3.145a8.819,8.819,0,0,0-4.148-1.157c-1.772,0-2.415.6-2.415,1.347,0,2.288,8.491.578,8.491,6.094,0,2.611-2.185,4.832-6.632,4.832a11.784,11.784,0,0,1-6.306-1.646" transform="translate(3.441 119.486)" fill="#2b4b40"/>
    <rect id="Retângulo_703" data-name="Retângulo 703" width="4.233" height="14.969" transform="translate(22.564 267.21)" fill="#2b4b40"/>
    <path id="Caminho_280" data-name="Caminho 280" d="M15.886,161.346l1.39-3.123a9.423,9.423,0,0,0,4.939,1.477c1.753,0,2.437-.492,2.437-1.218,0-2.375-8.509-.643-8.509-6.2,0-2.672,2.182-4.854,6.628-4.854A11.2,11.2,0,0,1,28.2,148.73L26.9,151.875a8.825,8.825,0,0,0-4.148-1.157c-1.774,0-2.417.6-2.417,1.347,0,2.288,8.491.578,8.491,6.094,0,2.611-2.183,4.832-6.63,4.832a11.791,11.791,0,0,1-6.308-1.646" transform="translate(12.875 119.486)" fill="#2b4b40"/>
    <path id="Caminho_281" data-name="Caminho 281" d="M27.805,150.948h-4.6V147.59H36.613v3.358H32.038v11.611H27.805Z" transform="translate(18.809 119.62)" fill="#2b4b40"/>
    <path id="Caminho_282" data-name="Caminho 282" d="M43.5,159.288v3.272H31.484V147.59H43.224v3.273H35.676v2.522h6.65v3.165h-6.65v2.737Z" transform="translate(25.518 119.62)" fill="#2b4b40"/>
    <path id="Caminho_283" data-name="Caminho 283" d="M52.932,162.559l-.042-7.934-3.849,6.46H47.158l-3.827-6.246v7.72H39.418V147.59H42.9l5.259,8.64,5.131-8.64h3.487l.042,14.969Z" transform="translate(31.948 119.62)" fill="#2b4b40"/>
    <path id="Caminho_284" data-name="Caminho 284" d="M61.516,159.651H55.185l-1.175,2.908H49.69L56.3,147.59h4.168l6.63,14.969h-4.4Zm-1.242-3.121-1.923-4.791-1.926,4.791Z" transform="translate(40.273 119.62)" fill="#2b4b40"/>
    <path id="Caminho_285" data-name="Caminho 285" d="M63.4,147.59h7.077c4.959,0,8.359,2.888,8.359,7.485s-3.4,7.485-8.359,7.485H63.4ZM70.3,159.181c2.544,0,4.256-1.517,4.256-4.106s-1.713-4.1-4.256-4.1H67.63v8.211Z" transform="translate(51.384 119.62)" fill="#2b4b40"/>
    <path id="Caminho_286" data-name="Caminho 286" d="M85.168,159.288v3.272H73.151V147.59H84.891v3.273H77.343v2.522h6.65v3.165h-6.65v2.737Z" transform="translate(59.288 119.62)" fill="#2b4b40"/>
    <path id="Caminho_287" data-name="Caminho 287" d="M91.065,158.583h-2.31v3.976H84.522V147.59h6.844c4.081,0,6.648,2.118,6.648,5.54a4.963,4.963,0,0,1-2.929,4.724l3.228,4.705H93.781Zm.042-7.657H88.755v4.383h2.352c1.754,0,2.631-.811,2.631-2.18,0-1.39-.876-2.2-2.631-2.2" transform="translate(68.504 119.62)" fill="#2b4b40"/>
    <path id="Caminho_288" data-name="Caminho 288" d="M104.094,159.651H97.763l-1.175,2.908h-4.32l6.608-14.969h4.168l6.63,14.969h-4.4Zm-1.242-3.121-1.923-4.791L99,156.53Z" transform="translate(74.782 119.62)" fill="#2b4b40"/>
    <path id="Caminho_289" data-name="Caminho 289" d="M101.961,161.346l1.39-3.123a9.423,9.423,0,0,0,4.939,1.477c1.753,0,2.437-.492,2.437-1.218,0-2.375-8.509-.643-8.509-6.2,0-2.672,2.182-4.854,6.628-4.854a11.2,11.2,0,0,1,5.431,1.305l-1.305,3.145a8.825,8.825,0,0,0-4.148-1.157c-1.774,0-2.417.6-2.417,1.347,0,2.288,8.491.578,8.491,6.094,0,2.611-2.183,4.832-6.63,4.832a11.791,11.791,0,0,1-6.308-1.646" transform="translate(82.638 119.486)" fill="#2b4b40"/>
    <path id="Caminho_290" data-name="Caminho 290" d="M113.88,150.948h-4.6V147.59h13.407v3.358h-4.575v11.611H113.88Z" transform="translate(88.571 119.62)" fill="#2b4b40"/>
    <path id="Caminho_291" data-name="Caminho 291" d="M124.1,158.583h-2.31v3.976h-4.233V147.59H124.4c4.081,0,6.648,2.118,6.648,5.54a4.963,4.963,0,0,1-2.929,4.724l3.228,4.705h-4.532Zm.042-7.657h-2.352v4.383h2.352c1.754,0,2.631-.811,2.631-2.18,0-1.39-.876-2.2-2.631-2.2" transform="translate(95.28 119.62)" fill="#2b4b40"/>
    <path id="Caminho_292" data-name="Caminho 292" d="M138.312,159.288v3.272H126.3V147.59h11.739v3.273h-7.548v2.522h6.65v3.165h-6.65v2.737Z" transform="translate(102.361 119.62)" fill="#2b4b40"/>
    <path id="Caminho_293" data-name="Caminho 293" d="M145.064,159.651h-6.331l-1.175,2.908h-4.32l6.608-14.969h4.168l6.63,14.969h-4.4Zm-1.242-3.121L141.9,151.74l-1.926,4.791Z" transform="translate(107.988 119.62)" fill="#2b4b40"/>
    <path id="Caminho_294" data-name="Caminho 294" d="M157.025,162.559l-.042-7.934-3.849,6.46h-1.881l-3.829-6.246v7.72h-3.912V147.59H147l5.259,8.64,5.131-8.64h3.487l.042,14.969Z" transform="translate(116.314 119.62)" fill="#2b4b40"/>
    <path id="Caminho_295" data-name="Caminho 295" d="M166.792,159.288v3.272H154.776V147.59h11.739v3.273h-7.548v2.522h6.65v3.165h-6.65v2.737Z" transform="translate(125.444 119.62)" fill="#2b4b40"/>
    <path id="Caminho_296" data-name="Caminho 296" d="M176.95,147.59v14.969h-3.485l-6.606-7.975v7.975h-4.148V147.59H166.2l6.606,7.977V147.59Z" transform="translate(131.875 119.62)" fill="#2b4b40"/>
    <path id="Caminho_297" data-name="Caminho 297" d="M176.045,150.948h-4.6V147.59h13.407v3.358h-4.575v11.611h-4.233Z" transform="translate(138.956 119.62)" fill="#2b4b40"/>
    <path id="Caminho_298" data-name="Caminho 298" d="M179.181,155.208c0-4.49,3.529-7.783,8.319-7.783s8.316,3.293,8.316,7.783-3.527,7.783-8.316,7.783-8.319-3.293-8.319-7.783m12.358,0a4.047,4.047,0,1,0-4.039,4.276,4.006,4.006,0,0,0,4.039-4.276" transform="translate(145.224 119.486)" fill="#2b4b40"/>
    <path id="Caminho_299" data-name="Caminho 299" d="M193.032,147.59h7.077c4.959,0,8.359,2.888,8.359,7.485s-3.4,7.485-8.359,7.485h-7.077Zm6.905,11.591c2.544,0,4.256-1.517,4.256-4.106s-1.713-4.1-4.256-4.1h-2.674v8.211Z" transform="translate(156.45 119.62)" fill="#2b4b40"/>
    <path id="Caminho_300" data-name="Caminho 300" d="M214.8,159.288v3.272H202.783V147.59h11.739v3.273h-7.548v2.522h6.65v3.165h-6.65v2.737Z" transform="translate(164.354 119.62)" fill="#2b4b40"/>
    <path id="Caminho_301" data-name="Caminho 301" d="M227.648,153.13c0,3.4-2.569,5.517-6.65,5.517h-2.611v3.912h-4.233V147.59H221c4.081,0,6.65,2.118,6.65,5.54m-4.276,0c0-1.39-.878-2.2-2.631-2.2h-2.354v4.383h2.354c1.753,0,2.631-.811,2.631-2.18" transform="translate(173.569 119.62)" fill="#2b4b40"/>
    <path id="Caminho_302" data-name="Caminho 302" d="M229.281,158.583h-2.31v3.976h-4.233V147.59h6.844c4.081,0,6.648,2.118,6.648,5.54a4.963,4.963,0,0,1-2.929,4.724l3.228,4.705H232Zm.042-7.657h-2.352v4.383h2.352c1.754,0,2.631-.811,2.631-2.18,0-1.39-.876-2.2-2.631-2.2" transform="translate(180.527 119.62)" fill="#2b4b40"/>
    <path id="Caminho_303" data-name="Caminho 303" d="M231.05,155.208c0-4.49,3.529-7.783,8.319-7.783s8.316,3.293,8.316,7.783-3.527,7.783-8.316,7.783-8.319-3.293-8.319-7.783m12.358,0a4.047,4.047,0,1,0-4.039,4.276,4.006,4.006,0,0,0,4.039-4.276" transform="translate(187.263 119.486)" fill="#2b4b40"/>
    <path id="Caminho_304" data-name="Caminho 304" d="M241.465,147.59h7.077c4.959,0,8.359,2.888,8.359,7.485s-3.4,7.485-8.359,7.485h-7.077Zm6.905,11.591c2.544,0,4.255-1.517,4.255-4.106s-1.711-4.1-4.255-4.1H245.7v8.211Z" transform="translate(195.705 119.62)" fill="#2b4b40"/>
    <path id="Caminho_305" data-name="Caminho 305" d="M251.146,155.887v-8.3h4.235v8.169c0,2.565,1.068,3.592,2.842,3.592,1.754,0,2.823-1.027,2.823-3.592V147.59h4.17v8.3c0,4.468-2.609,6.97-7.034,6.97s-7.036-2.5-7.036-6.97" transform="translate(203.551 119.62)" fill="#2b4b40"/>
    <path id="Caminho_306" data-name="Caminho 306" d="M264.187,150.948h-4.6V147.59h13.407v3.358H268.42v11.611h-4.233Z" transform="translate(210.393 119.62)" fill="#2b4b40"/>
    <path id="Caminho_307" data-name="Caminho 307" d="M267.322,155.208c0-4.49,3.529-7.783,8.319-7.783s8.316,3.293,8.316,7.783-3.527,7.783-8.316,7.783-8.319-3.293-8.319-7.783m12.358,0a4.048,4.048,0,1,0-4.039,4.276,4.006,4.006,0,0,0,4.039-4.276" transform="translate(216.661 119.486)" fill="#2b4b40"/>
  </g>
</svg>
